<svg xmlns="http://www.w3.org/2000/svg" width="32" height="32" viewBox="0 0 32 32">
  <rect width="32" height="32" rx="4" fill="#FAFAF8"/>
  <!-- J letterform -->
  <path d="M6 7h4v12c0 2.5-1.2 4-3.5 4H5.5v-3h0.5c0.8 0 1-0.5 1-1.5V7z" fill="#1C1E26"/>
  <!-- B letterform -->
  <path d="M16 7h5c2.5 0 4 1.2 4 3.2 0 1.5-0.8 2.5-2 3 1.5 0.5 2.5 1.8 2.5 3.5 0 2.3-1.8 3.8-4.5 3.8H16V7zm4 5h1.2c0.9 0 1.5-0.5 1.5-1.3 0-0.8-0.6-1.2-1.5-1.2H20V12zm0 5.5h1.5c1 0 1.7-0.5 1.7-1.4 0-0.9-0.7-1.4-1.7-1.4H20V17.5z" fill="#1C1E26"/>
</svg>
